<?xml version="1.0" standalone="no"?><!DOCTYPE svg PUBLIC "-//W3C//DTD SVG 1.1//EN" "http://www.w3.org/Graphics/SVG/1.1/DTD/svg11.dtd"><svg t="1652355836679" class="icon" viewBox="0 0 1108 1024" version="1.1" xmlns="http://www.w3.org/2000/svg" p-id="11850" xmlns:xlink="http://www.w3.org/1999/xlink" width="216.40625" height="200"><defs><style type="text/css">@font-face { font-family: feedback-iconfont; src: url("//at.alicdn.com/t/font_1031158_u69w8yhxdu.woff2?t=1630033759944") format("woff2"), url("//at.alicdn.com/t/font_1031158_u69w8yhxdu.woff?t=1630033759944") format("woff"), url("//at.alicdn.com/t/font_1031158_u69w8yhxdu.ttf?t=1630033759944") format("truetype"); }
</style></defs><path d="M791.247022 22.644196c-99.290228 0-186.87737 43.683756-250.52047 114.816653C485.958256 69.411723 406.004342 22.644196 316.893244 22.644196 151.781555 22.644196 17.928896 183.058515 17.928896 342.338831 17.928896 751.458318 548.651124 1010.786359 548.651124 1010.786359l3.20479-26.221012 5.477278 26.221012s532.88266-259.32804 532.88266-668.447528c-0.008964-159.280316-133.861623-319.694634-298.96883-319.694635z" fill="#FF94B3" p-id="11851"></path><path d="M573.294392 159.907827s-111.078478 156.886808-75.220685 295.835756c0 0 0 35.857793-35.857793 35.857793s-47.108175-49.304465-35.857792-138.948948c11.2459-89.644482 134.466723-228.593429 134.466723-228.593429l12.469547 35.848828z" fill="#FFADC5" p-id="11852"></path><path d="M929.030591 64.539545c63.11868 56.525328 103.624539 140.683568 103.624539 224.559428 0 375.292142-488.817915 613.177222-488.817915 613.177222l-5.024573-24.047132-2.935857 24.047132S49.040014 664.395597 49.040014 289.098973c0-59.855621 20.63616-119.877084 55.377879-169.894223C48.381127 179.60272 13.500459 261.089554 13.500459 342.338831c0 409.119488 530.722228 668.447528 530.722228 668.447528l3.195825-26.221012 5.477278 26.221012s532.88266-259.32804 532.88266-668.447528c0-109.617273-63.396578-219.763448-156.747859-277.799286z" fill="#E887A3" p-id="11853"></path><path d="M92.817897 343.262169c0-142.548173 123.010158-286.113811 274.760338-286.113812 81.894717 0 155.376299 41.850526 205.711675 102.754988 58.488542-63.665511 138.984805-102.754988 230.233924-102.754988 64.149591 0 123.104285 25.71452 169.862847 66.103842-50.389163-62.764584-125.080946-106.2063-208.513066-106.206301-91.244636 0-171.745381 39.093959-230.233923 102.754988C484.313279 58.896425 410.831697 17.045898 328.936981 17.045898c-151.741215 0-274.760338 143.561156-274.760338 286.10933 0 156.77027 89.433818 288.937613 191.69576 388.859834-85.139847-94.198422-153.054507-212.134703-153.054506-348.752893z" fill="#FFADC5" p-id="11854"></path><path d="M557.337674 1023.999955a17.933379 17.933379 0 0 1-7.861821-34.055939c1.313292-0.640958 133.2117-65.480812 263.133449-178.742133 118.460701-103.261479 259.668689-269.247202 259.668689-473.582834C1072.277991 195.173967 952.091634 35.857793 791.247022 35.857793c-150.992684 0-281.416441 110.280642-324.544401 274.415206-8.507261 32.36614-12.267847 73.508475-11.183149 122.284039a17.928896 17.928896 0 0 1-17.525497 18.323332l-0.407882 0.004482a17.928896 17.928896 0 0 1-17.919932-17.529979c-1.160896-52.119302 2.994126-96.596412 12.348527-132.198717C479.355939 121.024533 623.714931 0 791.247022 0c83.261795 0 163.067795 37.659647 224.716305 106.040458 58.578187 64.983285 92.172457 149.39253 92.172457 231.583073 0 172.623897-94.261173 345.920128-272.595424 501.166442-133.476152 116.192696-264.841176 180.709829-270.367758 183.399164a17.816841 17.816841 0 0 1-7.834928 1.810818z" fill="#6E6E96" p-id="11855"></path><path d="M548.637677 1023.999955a17.866145 17.866145 0 0 1-7.857338-1.824265c-5.508653-2.689334-136.344775-67.21095-269.287543-183.408128C93.880184 683.52573 0 510.229499 0 337.623531c0-82.195026 33.598752-166.599788 92.176939-231.583073C153.825449 37.659647 233.631449 0 316.893244 0c89.012489 0 175.689738 44.252999 237.8044 121.410004a17.928896 17.928896 0 1 1-27.928738 22.487319C471.494118 75.238614 394.995999 35.857793 316.893244 35.857793 156.048632 35.857793 35.857793 195.173967 35.857793 337.623531c0 204.613531 140.97043 370.778543 259.229431 474.147595 129.392846 113.090996 260.125876 177.549861 261.430203 178.190819a17.928896 17.928896 0 0 1-7.87975 34.03801z" fill="#6E6E96" p-id="11856"></path></svg>