<?xml version="1.0" standalone="no"?><!DOCTYPE svg PUBLIC "-//W3C//DTD SVG 1.1//EN" "http://www.w3.org/Graphics/SVG/1.1/DTD/svg11.dtd"><svg t="1652958410767" class="icon" viewBox="0 0 1024 1024" version="1.1" xmlns="http://www.w3.org/2000/svg" p-id="18348" xmlns:xlink="http://www.w3.org/1999/xlink" width="200" height="200"><defs><style type="text/css">@font-face { font-family: feedback-iconfont; src: url("//at.alicdn.com/t/font_1031158_u69w8yhxdu.woff2?t=1630033759944") format("woff2"), url("//at.alicdn.com/t/font_1031158_u69w8yhxdu.woff?t=1630033759944") format("woff"), url("//at.alicdn.com/t/font_1031158_u69w8yhxdu.ttf?t=1630033759944") format("truetype"); }
</style></defs><path d="M960 512c0 247.424-200.576 448-448 448S64 759.424 64 512 264.576 64 512 64s448 200.576 448 448z" fill="#FFD9D9" p-id="18349"></path><path d="M294.944 903.904L735.04 123.456A448 448 0 0 1 960 512c0 247.424-200.576 448-448 448a448 448 0 0 1-217.056-56.096z" fill="#FFC2C2" p-id="18350"></path><path d="M590.496 389.12a25.6 25.6 0 0 0 24.384 17.856h171.296c24.64 0 35.04 31.456 15.264 46.144l-139.552 103.712a25.6 25.6 0 0 0-9.12 28.32l53.056 167.04c7.52 23.68-19.712 43.136-39.68 28.32l-137.344-102.08a25.6 25.6 0 0 0-30.528 0l-137.344 102.08c-19.968 14.816-47.2-4.608-39.68-28.32l53.056-167.04a25.6 25.6 0 0 0-9.12-28.32l-139.52-103.68c-19.84-14.72-9.408-46.176 15.232-46.176h171.296a25.6 25.6 0 0 0 24.384-17.856l52.576-165.44c7.552-23.776 41.216-23.776 48.768 0l52.576 165.44z" fill="#FF8686" p-id="18351"></path></svg>