<?xml version="1.0" standalone="no"?><!DOCTYPE svg PUBLIC "-//W3C//DTD SVG 1.1//EN" "http://www.w3.org/Graphics/SVG/1.1/DTD/svg11.dtd"><svg t="1652958341289" class="icon" viewBox="0 0 1024 1024" version="1.1" xmlns="http://www.w3.org/2000/svg" p-id="17316" xmlns:xlink="http://www.w3.org/1999/xlink" width="200" height="200"><defs><style type="text/css">@font-face { font-family: feedback-iconfont; src: url("//at.alicdn.com/t/font_1031158_u69w8yhxdu.woff2?t=1630033759944") format("woff2"), url("//at.alicdn.com/t/font_1031158_u69w8yhxdu.woff?t=1630033759944") format("woff"), url("//at.alicdn.com/t/font_1031158_u69w8yhxdu.ttf?t=1630033759944") format("truetype"); }
</style></defs><path d="M219.7 420.4h592.8v367.4H219.7z" fill="#F4476B" p-id="17317"></path><path d="M308 374.5H172l71.6-112.9h107.3L308 374.5z" fill="#FBE66B" p-id="17318"></path><path d="M444 374.5H308l42.9-112.9h107.3L444 374.5z" fill="#F4476B" p-id="17319"></path><path d="M580 374.5H444l14.3-112.9h107.3L580 374.5z" fill="#FBE66B" p-id="17320"></path><path d="M716 374.5H580l-14.3-112.9H673l43 112.9z" fill="#F4476B" p-id="17321"></path><path d="M852 374.5H716l-42.9-112.9h107.3L852 374.5z" fill="#FBE66B" p-id="17322"></path><path d="M240 496.6c-37.6 0-68-30.4-68-68v-54h136v54c0 37.5-30.4 68-68 68z" fill="#FBD12F" p-id="17323"></path><path d="M376 496.6c-37.6 0-68-30.4-68-68v-54h136v54c0 37.5-30.4 68-68 68z" fill="#FB6C8C" p-id="17324"></path><path d="M512 496.6c-37.6 0-68-30.4-68-68v-54h136v54c0 37.5-30.4 68-68 68z" fill="#FBD12F" p-id="17325"></path><path d="M648 496.6c-37.6 0-68-30.4-68-68v-54h136v54c0 37.5-30.4 68-68 68z" fill="#FB6C8C" p-id="17326"></path><path d="M784 496.6c-37.6 0-68-30.4-68-68v-54h136v54c0 37.5-30.4 68-68 68z" fill="#FBD12F" p-id="17327"></path><path d="M743.8 177.1H280.2c-20.2 0-36.6 16.4-36.6 36.6v47.9h536.7v-47.9c0.1-20.1-16.3-36.6-36.5-36.6z" fill="#92E7E6" p-id="17328"></path><path d="M834.8 846.9h-633c-9.5 0-17.2-7.7-17.2-17.2V805c0-9.5 7.7-17.2 17.2-17.2h633c9.5 0 17.2 7.7 17.2 17.2v24.7c0 9.5-7.7 17.2-17.2 17.2z" fill="#6F9DFB" p-id="17329"></path><path d="M592.3 545.8h142.5v241.9H592.3zM317.5 545.8H480V664H317.5z" fill="#FFFFFF" p-id="17330"></path><path d="M278.8 664h239.6v29.5H278.8z" fill="#92E7E6" p-id="17331"></path><path d="M859 428.6v-54-0.2-0.4-0.2c-0.1-1.1-0.4-2.1-1-3l-70.6-111.3v-45.7c0.1-11.6-4.4-22.5-12.7-30.8-8.2-8.3-19.2-12.8-30.8-12.8H280.2c-24 0-43.6 19.6-43.6 43.6v45.9l-70.5 111.2c-0.6 0.9-0.9 2-1 3v54.8c0 31.7 19.8 58.9 47.7 69.8v282.4h-10.9c-13.3 0-24.2 10.9-24.2 24.2v24.7c0 13.3 10.9 24.2 24.2 24.2h633c13.3 0 24.2-10.9 24.2-24.2V805c0-13.3-10.9-24.2-24.2-24.2h-15.3V494.6c23.4-12.6 39.4-37.5 39.4-66z m-14 0c0 24.3-14.3 45.4-35 55.2-0.3 0.1-0.6 0.2-0.8 0.4-7.7 3.5-16.2 5.5-25.2 5.5-33.6 0-61-27.4-61-61v-47h122v46.9z m-136 0c0 33.6-27.4 61-61 61s-61-27.4-61-61v-47h122v47z m-136 0c0 33.6-27.4 61-61 61s-61-27.4-61-61v-47h122v47z m-136 0c0 33.6-27.4 61-61 61s-61-27.4-61-61v-47h122v47z m231.2-160l37.7 98.9H586.2l-12.5-98.9h94.5z m-108.8 0l12.6 98.9H451.9l12.5-98.9h95z m-121.6 98.9H318.1l37.6-98.9h94.5l-12.4 98.9z m283 0l-37.6-98.9h93.3l62.7 98.9H720.8zM250.6 213.7c0-16.3 13.3-29.6 29.6-29.6h463.6c7.9 0 15.3 3.1 20.9 8.7 5.6 5.6 8.6 13 8.6 20.9v40.9H250.6v-40.9z m-3.2 54.9h93.3l-12.8 33.7-24.8 65.2H184.7l62.7-98.9z m-68.4 160v-47h122v47c0 33.6-27.4 61-61 61-6 0-11.8-0.9-17.3-2.5-0.6-0.3-1.2-0.5-1.9-0.6-24.2-8.1-41.8-31-41.8-57.9zM845 805v24.7c0 5.6-4.6 10.2-10.2 10.2h-633c-5.6 0-10.2-4.6-10.2-10.2V805c0-5.6 4.6-10.2 10.2-10.2H834.8c5.6 0 10.2 4.6 10.2 10.2z m-245.7-24.3V552.8h128.5v227.9H599.3z m206.2 0.1h-63.7v-235c0-3.9-3.1-7-7-7H592.3c-3.9 0-7 3.1-7 7v235H226.7V502.4c4.3 0.8 8.8 1.2 13.3 1.2 30.1 0 56.1-17.8 68-43.4 11.9 25.6 37.9 43.4 68 43.4s56.1-17.8 68-43.4c11.9 25.6 37.9 43.4 68 43.4s56.1-17.8 68-43.4c11.9 25.6 37.9 43.4 68 43.4s56.1-17.8 68-43.4c11.9 25.6 37.9 43.4 68 43.4 7.5 0 14.7-1.1 21.5-3.2v280.4z" fill="#002DEA" p-id="17332"></path><path d="M518.4 657H487V545.8c0-3.9-3.1-7-7-7H317.5c-3.9 0-7 3.1-7 7V657h-31.7c-3.9 0-7 3.1-7 7v29.5c0 3.9 3.1 7 7 7h239.6c3.9 0 7-3.1 7-7V664c0-3.9-3.1-7-7-7zM324.5 552.8H473V657H324.5V552.8z m186.9 133.7H285.8V671h225.6v15.5zM624.7 636.6c-3.9 0-7 3.1-7 7v35.2c0 3.9 3.1 7 7 7s7-3.1 7-7v-35.2c0-3.9-3.1-7-7-7z" fill="#002DEA" p-id="17333"></path></svg>