<?xml version="1.0" standalone="no"?><!DOCTYPE svg PUBLIC "-//W3C//DTD SVG 1.1//EN" "http://www.w3.org/Graphics/SVG/1.1/DTD/svg11.dtd"><svg t="1652958236295" class="icon" viewBox="0 0 1024 1024" version="1.1" xmlns="http://www.w3.org/2000/svg" p-id="15277" xmlns:xlink="http://www.w3.org/1999/xlink" width="200" height="200"><defs><style type="text/css">@font-face { font-family: feedback-iconfont; src: url("//at.alicdn.com/t/font_1031158_u69w8yhxdu.woff2?t=1630033759944") format("woff2"), url("//at.alicdn.com/t/font_1031158_u69w8yhxdu.woff?t=1630033759944") format("woff"), url("//at.alicdn.com/t/font_1031158_u69w8yhxdu.ttf?t=1630033759944") format("truetype"); }
</style></defs><path d="M364.178 152.893c73.569 0 137.957 64.388 137.957 147.159s-64.388 147.14-137.957 147.14c-82.771 0-147.159-64.369-147.159-147.14s64.388-147.159 147.159-147.159" fill="#39A3CC" p-id="15278"></path><path d="M364.178 450.692c-40.968 0-79.001-15.468-107.093-43.556-28.094-28.089-43.565-66.119-43.565-107.084 0-40.967 15.472-79 43.565-107.093 28.093-28.094 66.126-43.565 107.093-43.565 36.461 0 72.581 15.899 99.096 43.621 27.317 28.559 42.361 66.572 42.361 107.038 0 40.464-15.044 78.475-42.361 107.029-26.515 27.714-62.634 43.61-99.096 43.61z m0-294.299c-80.556 0-143.659 63.103-143.659 143.659 0 80.546 63.103 143.64 143.659 143.64 74.14 0 134.457-64.437 134.457-143.64 0-79.214-60.317-143.659-134.457-143.659z" fill="#111111" p-id="15279"></path><path d="M741.246 152.893c55.169 0 110.355 45.986 110.355 110.374 0 64.37-55.187 110.354-110.355 110.354-64.386 0-110.372-45.984-110.372-110.354 0-64.388 45.986-110.374 110.372-110.374" fill="#39A3CC" p-id="15280"></path><path d="M741.246 377.121c-32.074 0-61.126-11.387-81.806-32.063-20.678-20.676-32.066-49.723-32.066-81.791 0-32.076 11.388-61.128 32.066-81.807s49.73-32.067 81.806-32.067c28.213 0 56.74 11.663 78.27 31.997 22.948 21.675 35.586 50.753 35.586 81.877 0 31.116-12.638 60.188-35.586 81.86-21.53 20.333-50.058 31.994-78.27 31.994z m0-220.728c-62.925 0-106.872 43.948-106.872 106.874 0 62.914 43.947 106.854 106.872 106.854 51.604 0 106.855-42.937 106.855-106.854 0.001-63.929-55.251-106.874-106.855-106.874z" fill="#111111" p-id="15281"></path><path d="M741.246 447.192c137.94 0 248.313 110.375 248.313 248.313H483.733c0-137.939 119.556-248.313 257.513-248.313" fill="#E8AD17" p-id="15282"></path><path d="M993.059 699.005H480.233v-3.5c0-67.141 27.74-130.505 78.11-178.419 24.17-22.992 52.143-41.07 83.142-53.733 31.938-13.046 65.503-19.661 99.761-19.661 67.648 0 130.991 26.087 178.358 73.455 47.368 47.368 73.454 110.71 73.454 178.358v3.5z m-505.799-7h498.774c-1.881-133.382-110.968-241.313-244.788-241.313-136.478 0-251.966 110.143-253.986 241.313z" fill="#111111" p-id="15283"></path><path d="M364.178 539.163c174.742 0 331.083 147.158 331.083 331.083H33.095c0-183.925 147.14-331.083 331.083-331.083" fill="#DD5A24" p-id="15284"></path><path d="M698.762 873.746H29.595v-3.5c0-89.892 34.658-174.056 97.588-236.988 62.933-62.935 147.1-97.595 236.996-97.595 43.323 0 85.991 8.797 126.82 26.146 39.684 16.862 75.583 40.894 106.701 71.425 31.457 30.864 56.223 66.622 73.609 106.281 18.217 41.552 27.453 85.536 27.453 130.73v3.501z m-662.149-7h655.129c-1.959-176.031-151.166-324.083-327.564-324.083-179.461 0-325.68 145.06-327.565 324.083z" fill="#111111" p-id="15285"></path><path d="M612.491 548.364c73.568 0 137.956 64.369 137.956 137.957 0 73.571-64.388 128.757-137.956 128.757-73.571 0-128.758-55.186-128.758-128.757 0-73.588 55.187-137.957 128.758-137.957" fill="#D94929" p-id="15286"></path><path d="M612.491 818.578c-75.399 0-132.258-56.858-132.258-132.257 0-37.055 13.389-72.188 37.7-98.929 24.934-27.425 58.515-42.528 94.558-42.528 75.355 0 141.456 66.102 141.456 141.457 0 36.041-15.106 69.622-42.535 94.558-26.743 24.31-61.874 37.699-98.921 37.699z m0-266.714c-69.067 0-125.258 60.317-125.258 134.457 0 71.408 53.85 125.257 125.258 125.257 74.14 0 134.456-56.19 134.456-125.257 0-71.627-62.83-134.457-134.456-134.457z" fill="#111111" p-id="15287"></path></svg>